<svg width="24" height="24" viewBox="0 0 24 24" fill="none" xmlns="http://www.w3.org/2000/svg">
<path d="M4.36507 17.9972C4.53597 19.4355 5.69476 20.5768 7.1407 20.6612C8.76228 20.7557 10.3987 20.8053 12.2078 20.8053C14.0168 20.8053 15.6533 20.7557 17.2749 20.6612C18.7208 20.5768 19.8796 19.4355 20.0505 17.9972C20.2372 16.4257 20.4156 14.8026 20.4156 13.1424C20.4156 11.4822 20.2372 9.85914 20.0505 8.28763C19.8796 6.84935 18.7208 5.70801 17.2749 5.62367C15.6533 5.52907 14.0168 5.47949 12.2078 5.47949C10.3987 5.47949 8.76228 5.52907 7.1407 5.62367C5.69476 5.70801 4.53597 6.84935 4.36507 8.28763C4.17834 9.85914 4 11.4822 4 13.1424C4 14.8026 4.17834 16.4257 4.36507 17.9972Z" fill="white"/>
<path d="M9.1875 4.00073L9.1875 7.41402" stroke="#505567" stroke-width="1.5" stroke-linecap="round"/>
<path d="M15.2187 4.00073L15.2187 7.41402" stroke="#505567" stroke-width="1.5" stroke-linecap="round"/>
<path d="M4.36507 17.9972C4.53597 19.4355 5.69476 20.5768 7.1407 20.6612C8.76228 20.7557 10.3987 20.8053 12.2078 20.8053C14.0168 20.8053 15.6533 20.7557 17.2749 20.6612C18.7208 20.5768 19.8796 19.4355 20.0505 17.9972C20.2372 16.4257 20.4156 14.8026 20.4156 13.1424C20.4156 11.4822 20.2372 9.85914 20.0505 8.28763C19.8796 6.84935 18.7208 5.70801 17.2749 5.62367C15.6533 5.52907 14.0168 5.47949 12.2078 5.47949C10.3987 5.47949 8.76228 5.52907 7.1407 5.62367C5.69476 5.70801 4.53597 6.84935 4.36507 8.28763C4.17834 9.85914 4 11.4822 4 13.1424C4 14.8026 4.17834 16.4257 4.36507 17.9972Z" stroke="#505567" stroke-width="1.5"/>
<path d="M4.39453 11.3596H20.1054" stroke="#505567" stroke-width="1.5"/>
</svg>
