<svg width="24" height="24" viewBox="0 0 24 24" fill="none" xmlns="http://www.w3.org/2000/svg">
<path d="M7.96086 14.6262C7.57034 15.0168 7.57034 15.6499 7.96086 16.0405C8.35139 16.431 8.98455 16.431 9.37508 16.0405L7.96086 14.6262ZM12.7084 12.7071C13.0989 12.3166 13.0989 11.6834 12.7084 11.2929C12.3179 10.9024 11.6847 10.9024 11.2942 11.2929L12.7084 12.7071ZM11.2942 11.2929C10.9037 11.6834 10.9037 12.3166 11.2942 12.7071C11.6847 13.0977 12.3179 13.0977 12.7084 12.7071L11.2942 11.2929ZM16.0417 9.37379C16.4323 8.98327 16.4323 8.3501 16.0417 7.95958C15.6512 7.56906 15.0181 7.56906 14.6275 7.95958L16.0417 9.37379ZM12.7084 11.2929C12.3179 10.9024 11.6847 10.9024 11.2942 11.2929C10.9037 11.6834 10.9037 12.3166 11.2942 12.7071L12.7084 11.2929ZM14.6275 16.0405C15.0181 16.431 15.6512 16.431 16.0417 16.0405C16.4323 15.6499 16.4323 15.0168 16.0417 14.6262L14.6275 16.0405ZM11.2942 12.7071C11.6847 13.0977 12.3179 13.0977 12.7084 12.7071C13.0989 12.3166 13.0989 11.6834 12.7084 11.2929L11.2942 12.7071ZM9.37508 7.95958C8.98455 7.56906 8.35139 7.56906 7.96086 7.95958C7.57034 8.3501 7.57034 8.98327 7.96086 9.37379L9.37508 7.95958ZM9.37508 16.0405L12.7084 12.7071L11.2942 11.2929L7.96086 14.6262L9.37508 16.0405ZM12.7084 12.7071L16.0417 9.37379L14.6275 7.95958L11.2942 11.2929L12.7084 12.7071ZM11.2942 12.7071L14.6275 16.0405L16.0417 14.6262L12.7084 11.2929L11.2942 12.7071ZM12.7084 11.2929L9.37508 7.95958L7.96086 9.37379L11.2942 12.7071L12.7084 11.2929Z" fill="#E2195B"/>
<rect x="1" y="1" width="22" height="22" rx="11" stroke="#E2195B" stroke-width="2"/>
</svg>
